<svg xmlns="http://www.w3.org/2000/svg" width="95" height="95.001" viewBox="0 0 95 95.001"><path d="M21.054,170.023l-3.307,12.345-12.086.256a47.584,47.584,0,0,1-.35-44.356h0l10.76,1.973,4.714,10.7a28.349,28.349,0,0,0,.266,19.086Z" transform="translate(0 -112.613)" fill="#fbbb00"/><path d="M307.254,208.176a47.483,47.483,0,0,1-16.933,45.916l0,0-13.553-.691-1.918-11.974a28.309,28.309,0,0,0,12.18-14.456h-25.4V208.176h45.626Z" transform="translate(-213.084 -169.549)" fill="#518ef8"/><path d="M102.082,336.539l0,0A47.514,47.514,0,0,1,30.509,322.01l15.393-12.6a28.25,28.25,0,0,0,40.709,14.464Z" transform="translate(-24.848 -251.999)" fill="#28b446"/><path d="M101.132,10.936l-15.388,12.6A28.246,28.246,0,0,0,44.1,38.324L28.627,25.655h0a47.509,47.509,0,0,1,72.508-14.72Z" transform="translate(-23.313)" fill="#f14336"/></svg>